<svg width="36" height="36" viewBox="0 0 36 36" fill="none" xmlns="http://www.w3.org/2000/svg">
<g clip-path="url(#clip0_18_106)">
<path d="M32.8175 24.375L25.5484 22.7604V21.6042C26.6538 20.8812 27.5197 19.8257 28.0079 18.5802H29.6129C30.8938 18.5802 31.9355 17.5385 31.9355 16.2576V12.1931C31.9355 11.3371 31.4651 10.5963 30.7742 10.1934V7.65423C30.7742 6.38946 30.0183 5.26248 28.8698 4.77539L28.7314 4.49839C27.3479 1.73097 24.566 0.0117188 21.4717 0.0117188C16.9961 0.0122858 13.3548 3.65351 13.3548 8.12913V10.194C12.6639 10.5969 12.1935 11.3377 12.1935 12.1936V16.2582C12.1935 17.5391 13.2352 18.5807 14.5161 18.5807H16.1211C16.6093 19.8262 17.4752 20.8818 18.5806 21.6047V22.7609L11.3115 24.3756C9.43775 24.7918 8.12903 26.424 8.12903 28.3431V36.0001H36V28.3431C36 26.424 34.6913 24.7918 32.8175 24.375ZM26.0477 24.0609L25.1849 27.5116L22.9755 26.0393L25.1529 23.8618L26.0477 24.0609ZM21.3792 30.1936H22.7503L23.6791 34.8388H20.4504L21.3792 30.1936ZM22.7725 29.0324H21.3566L20.9846 27.5464L22.0645 26.8272L23.1439 27.547L22.7725 29.0324ZM30.7742 16.2582C30.7742 16.8986 30.2534 17.4195 29.6129 17.4195H28.3408C28.4105 17.0421 28.4516 16.6554 28.4516 16.2582V11.0324H29.6129C30.2534 11.0324 30.7742 11.5532 30.7742 12.1936V16.2582ZM14.5161 8.12913C14.5161 4.29398 17.6365 1.17358 21.4717 1.17358C24.1229 1.17358 26.507 2.64674 27.6926 5.01865L28.0405 5.71299L28.2687 5.78925C29.0722 6.05746 29.6129 6.80708 29.6129 7.65537V9.87106H28.4516V8.12913H27.2903V9.49937C26.8577 9.7208 26.385 9.84498 25.898 9.86284C26.1656 9.61902 26.4066 9.34145 26.6121 9.03213L25.6459 8.38798C25.0491 9.28333 24.0636 9.8257 22.9936 9.86397C23.2618 9.61958 23.5028 9.34145 23.7089 9.03213L22.7427 8.38798C22.1459 9.28333 21.1604 9.8257 20.0904 9.86397C20.3586 9.61958 20.5996 9.34145 20.8057 9.03213L19.8395 8.38798C19.2205 9.3165 18.184 9.87106 17.0681 9.87106H16.8387V8.12913H15.6774V9.87106H14.5161V8.12913ZM14.5161 17.4195C13.8757 17.4195 13.3548 16.8986 13.3548 16.2582V12.1936C13.3548 11.5532 13.8757 11.0324 14.5161 11.0324H15.6774V16.2582C15.6774 16.6554 15.7185 17.0421 15.7883 17.4195H14.5161ZM16.8387 16.2582V11.0324H17.0681C17.8106 11.0324 18.5259 10.8489 19.1613 10.5144V11.0324H19.9713C20.7138 11.0324 21.4291 10.8489 22.0645 10.5144V11.0324H22.8745C23.6171 11.0324 24.3324 10.8489 24.9677 10.5144V11.0324H25.7777C26.298 11.0324 26.8066 10.932 27.2903 10.7582V16.2582C27.2903 16.6576 27.241 17.0455 27.1556 17.4195H24.2796C24.0392 16.7452 23.4004 16.2582 22.6446 16.2582H21.4833C20.523 16.2582 19.7414 17.0398 19.7414 18.0001C19.7414 18.9604 20.523 19.742 21.4833 19.742H22.6446C23.4004 19.742 24.0392 19.2549 24.2796 18.5807H26.7386C25.8818 20.2983 24.1107 21.484 22.0645 21.484C19.1828 21.484 16.8387 19.1398 16.8387 16.2582ZM23.2258 18.0001C23.2258 18.3199 22.9655 18.5807 22.6452 18.5807H21.4839C21.1635 18.5807 20.9032 18.3199 20.9032 18.0001C20.9032 17.6803 21.1635 17.4195 21.4839 17.4195H22.6452C22.9655 17.4195 23.2258 17.6803 23.2258 18.0001ZM22.0645 22.6453C22.8844 22.6453 23.6658 22.4845 24.3871 22.2016V22.9855L22.0645 25.3081L19.7419 22.9855V22.2016C20.4632 22.4845 21.2446 22.6453 22.0645 22.6453ZM18.9761 23.8618L21.1536 26.0393L18.9441 27.5116L18.0814 24.0609L18.9761 23.8618ZM9.29032 28.3431C9.29032 26.9723 10.2251 25.8062 11.5636 25.5091L16.9479 24.3123L18.2172 29.3919L19.9591 28.2306L20.3081 29.6275L19.2659 34.8388H13.9355V28.4517H12.7742V34.8388H9.29032V28.3431ZM34.8387 34.8388H31.3548V28.4517H30.1935V34.8388H24.8631L23.8209 29.6275L24.1699 28.2306L25.9119 29.3919L27.1812 24.3123L32.5655 25.5091C33.9039 25.8062 34.8387 26.9723 34.8387 28.3431V34.8388Z" fill="black"/>
<path d="M26.1291 12.7742C26.1291 13.0949 25.8691 13.3549 25.5484 13.3549C25.2278 13.3549 24.9678 13.0949 24.9678 12.7742C24.9678 12.4536 25.2278 12.1936 25.5484 12.1936C25.8691 12.1936 26.1291 12.4536 26.1291 12.7742Z" fill="black"/>
<path d="M19.1613 12.7742C19.1613 13.0949 18.9013 13.3549 18.5806 13.3549C18.26 13.3549 18 13.0949 18 12.7742C18 12.4536 18.26 12.1936 18.5806 12.1936C18.9013 12.1936 19.1613 12.4536 19.1613 12.7742Z" fill="black"/>
<path d="M2.32257 2.32251H8.12902V3.4838H2.32257V2.32251Z" fill="black"/>
<path d="M2.32257 4.64526H8.12902V5.80655H2.32257V4.64526Z" fill="black"/>
<path d="M8.70968 10.2687V8.12903H10.4516V0H0V8.12903H4.78976L8.70968 10.2687ZM1.16129 1.16129H9.29032V6.96774H7.54839V8.3119L5.08575 6.96774H1.16129V1.16129Z" fill="black"/>
<path d="M12.1935 21.4838H2.82668L3.48387 20.4986V11.0322C3.48387 10.0719 2.70221 9.29028 1.74194 9.29028C0.781659 9.29028 0 10.0719 0 11.0322V20.4986L1.4312 22.6451H12.1935V21.4838ZM1.74194 10.4516C2.06231 10.4516 2.32258 10.7124 2.32258 11.0322V12.1935H1.16129V11.0322C1.16129 10.7124 1.42156 10.4516 1.74194 10.4516ZM1.74194 21.0174L1.16129 20.1465V13.3548H2.32258V20.1465L1.74194 21.0174Z" fill="black"/>
<path d="M11.0322 19.1614H12.1935V20.3227H11.0322V19.1614Z" fill="black"/>
<path d="M4.64514 19.1614H9.87095V20.3227H4.64514V19.1614Z" fill="black"/>
<path d="M4.64514 16.8386H9.87095V17.9999H4.64514V16.8386Z" fill="black"/>
<path d="M8.70966 14.5161H9.87095V15.6774H8.70966V14.5161Z" fill="black"/>
<path d="M4.64514 14.5161H7.54837V15.6774H4.64514V14.5161Z" fill="black"/>
</g>
<defs>
<clipPath id="clip0_18_106">
<rect width="36" height="36" fill="white"/>
</clipPath>
</defs>
</svg>
