<svg width="240" height="62" viewBox="0 0 240 62" fill="none" xmlns="http://www.w3.org/2000/svg">
<path d="M108.905 0L67 40.5H71.9827L108.522 4.98265L121.681 17.5032L115.421 23.7634L108.522 16.7366L83.9921 40.5H90.2524L108.522 22.2303L123.853 37.5615L128.836 32.4511L137.907 40.5H143.401L131.008 30.0237L135.735 25.2965L151.833 40.5H157.327L135.48 19.9306L123.853 31.5568L118.487 26.1909L135.735 9.07098L167.931 40.5H174.063L135.735 3.32177L124.109 15.5868L108.905 0Z" fill="black"/>
<path d="M108.522 29.3849L96.6404 40.3722H102.262L108.522 35.1341L114.655 40.3722H120.532L108.522 29.3849Z" fill="black"/>
<path d="M2.63995 59H0.33313L3.84804 48.8182H6.62219L10.1321 59H7.82532L5.27489 51.1449H5.19535L2.63995 59ZM2.49577 54.9979H7.94464V56.6783H2.49577V54.9979Z" fill="black"/>
<path d="M10.7213 61.2372V57.3196H11.3079C11.477 57.2135 11.6128 57.0445 11.7156 56.8125C11.8216 56.5805 11.9078 56.3071 11.9741 55.9922C12.0437 55.6773 12.0967 55.3376 12.1332 54.973C12.173 54.6051 12.2078 54.2339 12.2376 53.8594L12.4365 51.3636H18.293V57.3196H19.4762V61.2372H17.4578V59H12.7895V61.2372H10.7213ZM13.4159 57.3196H16.2944V52.9943H14.2362L14.1566 53.8594C14.1003 54.6747 14.0191 55.3674 13.913 55.9375C13.807 56.5043 13.6413 56.965 13.4159 57.3196Z" fill="black"/>
<path d="M20.7104 59V51.3636H23.9668C24.9081 51.3636 25.6522 51.5426 26.1991 51.9006C26.7459 52.2585 27.0194 52.7673 27.0194 53.4269C27.0194 53.8412 26.8653 54.1858 26.557 54.4609C26.2488 54.736 25.8212 54.9216 25.2744 55.0178C25.7317 55.0509 26.1212 55.1553 26.4427 55.331C26.7675 55.5033 27.0144 55.727 27.1834 56.0021C27.3558 56.2772 27.442 56.5822 27.442 56.9169C27.442 57.3511 27.326 57.724 27.094 58.0355C26.8653 58.3471 26.5289 58.5857 26.0847 58.7514C25.6439 58.9171 25.1053 59 24.469 59H20.7104ZM22.6842 57.4141H24.469C24.7639 57.4141 24.9943 57.3445 25.16 57.2053C25.329 57.0627 25.4136 56.8689 25.4136 56.6236C25.4136 56.3518 25.329 56.138 25.16 55.9823C24.9943 55.8265 24.7639 55.7486 24.469 55.7486H22.6842V57.4141ZM22.6842 54.5057H24.0116C24.2237 54.5057 24.4043 54.4759 24.5535 54.4162C24.7059 54.3532 24.8219 54.2637 24.9015 54.1477C24.9843 54.0317 25.0258 53.8942 25.0258 53.7351C25.0258 53.4998 24.9313 53.3158 24.7424 53.1832C24.5535 53.0507 24.295 52.9844 23.9668 52.9844H22.6842V54.5057Z" fill="black"/>
<path d="M32.2271 59.1492C31.4549 59.1492 30.787 58.9851 30.2236 58.657C29.6634 58.3255 29.2309 57.8648 28.926 57.2749C28.6211 56.6816 28.4686 55.9939 28.4686 55.2117C28.4686 54.4228 28.6211 53.7334 28.926 53.1435C29.2309 52.5502 29.6634 52.0895 30.2236 51.7614C30.787 51.4299 31.4549 51.2642 32.2271 51.2642C32.9994 51.2642 33.6656 51.4299 34.2257 51.7614C34.7892 52.0895 35.2233 52.5502 35.5283 53.1435C35.8332 53.7334 35.9857 54.4228 35.9857 55.2117C35.9857 55.9939 35.8332 56.6816 35.5283 57.2749C35.2233 57.8648 34.7892 58.3255 34.2257 58.657C33.6656 58.9851 32.9994 59.1492 32.2271 59.1492ZM32.2371 57.5085C32.5884 57.5085 32.8817 57.4091 33.117 57.2102C33.3524 57.0081 33.5297 56.733 33.649 56.3849C33.7716 56.0369 33.833 55.6409 33.833 55.1967C33.833 54.7526 33.7716 54.3565 33.649 54.0085C33.5297 53.6605 33.3524 53.3854 33.117 53.1832C32.8817 52.9811 32.5884 52.88 32.2371 52.88C31.8824 52.88 31.5841 52.9811 31.3422 53.1832C31.1035 53.3854 30.9229 53.6605 30.8003 54.0085C30.681 54.3565 30.6213 54.7526 30.6213 55.1967C30.6213 55.6409 30.681 56.0369 30.8003 56.3849C30.9229 56.733 31.1035 57.0081 31.3422 57.2102C31.5841 57.4091 31.8824 57.5085 32.2371 57.5085Z" fill="black"/>
<path d="M37.3628 59V51.3636H39.4807V54.3267H40.0773L42.1554 51.3636H44.6412L41.9416 55.152L44.671 59H42.1554L40.2712 56.2905H39.4807V59H37.3628Z" fill="black"/>
<path d="M47.7435 59.1442C47.2562 59.1442 46.8221 59.0597 46.4409 58.8906C46.0598 58.7183 45.7581 58.4647 45.5361 58.13C45.3173 57.7919 45.208 57.371 45.208 56.8672C45.208 56.443 45.2858 56.0867 45.4416 55.7983C45.5974 55.5099 45.8095 55.2779 46.078 55.1023C46.3464 54.9266 46.6514 54.794 46.9928 54.7046C47.3375 54.6151 47.6987 54.5521 48.0766 54.5156C48.5207 54.4692 48.8786 54.4261 49.1504 54.3864C49.4222 54.3433 49.6194 54.2803 49.742 54.1974C49.8647 54.1146 49.926 53.992 49.926 53.8296V53.7997C49.926 53.4849 49.8266 53.2412 49.6277 53.0689C49.4321 52.8965 49.1537 52.8104 48.7925 52.8104C48.4113 52.8104 48.108 52.8949 47.8827 53.0639C47.6573 53.2296 47.5081 53.4385 47.4352 53.6903L45.4764 53.5313C45.5758 53.0672 45.7714 52.6662 46.0631 52.3281C46.3547 51.9867 46.7309 51.7249 47.1916 51.5426C47.6556 51.357 48.1926 51.2642 48.8024 51.2642C49.2267 51.2642 49.6327 51.3139 50.0205 51.4134C50.4116 51.5128 50.7579 51.6669 51.0595 51.8757C51.3644 52.0845 51.6047 52.353 51.7804 52.6811C51.9561 53.0059 52.0439 53.3954 52.0439 53.8494V59H50.0354V57.9411H49.9757C49.8531 58.1797 49.689 58.3902 49.4835 58.5724C49.278 58.7514 49.0311 58.8923 48.7428 58.995C48.4544 59.0945 48.1213 59.1442 47.7435 59.1442ZM48.35 57.6825C48.6616 57.6825 48.9366 57.6212 49.1753 57.4986C49.4139 57.3726 49.6012 57.2036 49.7371 56.9915C49.873 56.7794 49.9409 56.5391 49.9409 56.2706V55.4602C49.8746 55.5033 49.7835 55.5431 49.6675 55.5796C49.5548 55.6127 49.4272 55.6442 49.2847 55.674C49.1421 55.7005 48.9996 55.7254 48.8571 55.7486C48.7146 55.7685 48.5853 55.7867 48.4693 55.8033C48.2207 55.8397 48.0036 55.8977 47.818 55.9773C47.6324 56.0568 47.4883 56.1645 47.3855 56.3004C47.2828 56.433 47.2314 56.5987 47.2314 56.7976C47.2314 57.0859 47.3358 57.3064 47.5446 57.4588C47.7567 57.608 48.0252 57.6825 48.35 57.6825Z" fill="black"/>
<path d="M52.9201 53.0291V51.3636H59.8406V53.0291H57.3797V59H55.3612V53.0291H52.9201Z" fill="black"/>
<path d="M64.3013 59.1492C63.5192 59.1492 62.8463 58.9834 62.2829 58.652C61.7228 58.3172 61.2919 57.8532 60.9903 57.2599C60.692 56.6667 60.5428 55.9839 60.5428 55.2117C60.5428 54.4295 60.6936 53.7434 60.9952 53.1534C61.3002 52.5601 61.7327 52.0978 62.2928 51.7663C62.853 51.4316 63.5192 51.2642 64.2914 51.2642C64.9576 51.2642 65.5409 51.3852 66.0414 51.6271C66.5419 51.8691 66.9379 52.2088 67.2296 52.6463C67.5213 53.0838 67.682 53.5975 67.7119 54.1875H65.7133C65.6569 53.8064 65.5078 53.4998 65.2658 53.2678C65.0272 53.0324 64.714 52.9148 64.3262 52.9148C63.9981 52.9148 63.7114 53.0043 63.4661 53.1832C63.2242 53.3589 63.0353 53.6158 62.8994 53.9538C62.7635 54.2919 62.6955 54.7012 62.6955 55.1818C62.6955 55.669 62.7618 56.0833 62.8944 56.4247C63.0303 56.7661 63.2209 57.0263 63.4661 57.2053C63.7114 57.3842 63.9981 57.4737 64.3262 57.4737C64.5682 57.4737 64.7852 57.424 64.9775 57.3246C65.173 57.2251 65.3338 57.081 65.4597 56.8921C65.589 56.6998 65.6735 56.4695 65.7133 56.201H67.7119C67.6787 56.7843 67.5196 57.2981 67.2346 57.7422C66.9529 58.183 66.5634 58.5277 66.0663 58.7763C65.5691 59.0249 64.9808 59.1492 64.3013 59.1492Z" fill="black"/>
<path d="M69.0679 59V51.3636H71.1858V54.3267H71.7823L73.8605 51.3636H76.3463L73.6467 55.152L76.3761 59H73.8605L71.9762 56.2905H71.1858V59H69.0679Z" fill="black"/>
<path d="M79.4485 59.1442C78.9613 59.1442 78.5271 59.0597 78.146 58.8906C77.7648 58.7183 77.4632 58.4647 77.2411 58.13C77.0224 57.7919 76.913 57.371 76.913 56.8672C76.913 56.443 76.9909 56.0867 77.1467 55.7983C77.3025 55.5099 77.5146 55.2779 77.7831 55.1023C78.0515 54.9266 78.3564 54.794 78.6978 54.7046C79.0425 54.6151 79.4038 54.5521 79.7816 54.5156C80.2258 54.4692 80.5837 54.4261 80.8555 54.3864C81.1273 54.3433 81.3245 54.2803 81.4471 54.1974C81.5698 54.1146 81.6311 53.992 81.6311 53.8296V53.7997C81.6311 53.4849 81.5316 53.2412 81.3328 53.0689C81.1372 52.8965 80.8588 52.8104 80.4975 52.8104C80.1164 52.8104 79.8131 52.8949 79.5877 53.0639C79.3624 53.2296 79.2132 53.4385 79.1403 53.6903L77.1815 53.5313C77.2809 53.0672 77.4765 52.6662 77.7681 52.3281C78.0598 51.9867 78.436 51.7249 78.8967 51.5426C79.3607 51.357 79.8976 51.2642 80.5075 51.2642C80.9317 51.2642 81.3377 51.3139 81.7255 51.4134C82.1166 51.5128 82.463 51.6669 82.7646 51.8757C83.0695 52.0845 83.3098 52.353 83.4855 52.6811C83.6611 53.0059 83.749 53.3954 83.749 53.8494V59H81.7404V57.9411H81.6808C81.5582 58.1797 81.3941 58.3902 81.1886 58.5724C80.9831 58.7514 80.7362 58.8923 80.4478 58.995C80.1595 59.0945 79.8264 59.1442 79.4485 59.1442ZM80.0551 57.6825C80.3666 57.6825 80.6417 57.6212 80.8804 57.4986C81.119 57.3726 81.3063 57.2036 81.4421 56.9915C81.578 56.7794 81.646 56.5391 81.646 56.2706V55.4602C81.5797 55.5033 81.4885 55.5431 81.3725 55.5796C81.2599 55.6127 81.1322 55.6442 80.9897 55.674C80.8472 55.7005 80.7047 55.7254 80.5622 55.7486C80.4197 55.7685 80.2904 55.7867 80.1744 55.8033C79.9258 55.8397 79.7087 55.8977 79.5231 55.9773C79.3375 56.0568 79.1933 56.1645 79.0906 56.3004C78.9878 56.433 78.9365 56.5987 78.9365 56.7976C78.9365 57.0859 79.0409 57.3064 79.2497 57.4588C79.4618 57.608 79.7303 57.6825 80.0551 57.6825Z" fill="black"/>
<path d="M89.8665 59V53.0242H88.4347C88.0469 53.0242 87.7519 53.1136 87.5497 53.2926C87.3476 53.4716 87.2481 53.6837 87.2514 53.929C87.2481 54.1776 87.3443 54.388 87.5398 54.5604C87.7387 54.7294 88.0303 54.8139 88.4148 54.8139H90.5725V56.2457H88.4148C87.7619 56.2457 87.1968 56.1463 86.7195 55.9474C86.2422 55.7486 85.8743 55.4718 85.6158 55.1172C85.3573 54.7592 85.2297 54.3433 85.233 53.8693C85.2297 53.3722 85.3573 52.9363 85.6158 52.5618C85.8743 52.184 86.2439 51.8906 86.7245 51.6818C87.2084 51.4697 87.7784 51.3636 88.4347 51.3636H91.8402V59H89.8665ZM85.0142 59L87.1371 55.0227H89.1605L87.0426 59H85.0142Z" fill="black"/>
<path d="M96.7261 59V51.3636H98.844V54.3267H99.4406L101.519 51.3636H104.004L101.305 55.152L104.034 59H101.519L99.6344 56.2905H98.844V59H96.7261Z" fill="black"/>
<path d="M108.065 59.1492C107.293 59.1492 106.625 58.9851 106.061 58.657C105.501 58.3255 105.069 57.8648 104.764 57.2749C104.459 56.6816 104.306 55.9939 104.306 55.2117C104.306 54.4228 104.459 53.7334 104.764 53.1435C105.069 52.5502 105.501 52.0895 106.061 51.7614C106.625 51.4299 107.293 51.2642 108.065 51.2642C108.837 51.2642 109.503 51.4299 110.064 51.7614C110.627 52.0895 111.061 52.5502 111.366 53.1435C111.671 53.7334 111.824 54.4228 111.824 55.2117C111.824 55.9939 111.671 56.6816 111.366 57.2749C111.061 57.8648 110.627 58.3255 110.064 58.657C109.503 58.9851 108.837 59.1492 108.065 59.1492ZM108.075 57.5085C108.426 57.5085 108.72 57.4091 108.955 57.2102C109.19 57.0081 109.368 56.733 109.487 56.3849C109.61 56.0369 109.671 55.6409 109.671 55.1967C109.671 54.7526 109.61 54.3565 109.487 54.0085C109.368 53.6605 109.19 53.3854 108.955 53.1832C108.72 52.9811 108.426 52.88 108.075 52.88C107.72 52.88 107.422 52.9811 107.18 53.1832C106.941 53.3854 106.761 53.6605 106.638 54.0085C106.519 54.3565 106.459 54.7526 106.459 55.1967C106.459 55.6409 106.519 56.0369 106.638 56.3849C106.761 56.733 106.941 57.0081 107.18 57.2102C107.422 57.4091 107.72 57.5085 108.075 57.5085Z" fill="black"/>
<path d="M118.515 54.3367V56.0021H114.528V54.3367H118.515ZM115.224 51.3636V59H113.201V51.3636H115.224ZM119.843 51.3636V59H117.834V51.3636H119.843Z" fill="black"/>
<path d="M120.719 53.0291V51.3636H127.639V53.0291H125.178V59H123.16V53.0291H120.719Z" fill="black"/>
<path d="M132.1 59.1492C131.328 59.1492 130.66 58.9851 130.097 58.657C129.536 58.3255 129.104 57.8648 128.799 57.2749C128.494 56.6816 128.342 55.9939 128.342 55.2117C128.342 54.4228 128.494 53.7334 128.799 53.1435C129.104 52.5502 129.536 52.0895 130.097 51.7614C130.66 51.4299 131.328 51.2642 132.1 51.2642C132.872 51.2642 133.539 51.4299 134.099 51.7614C134.662 52.0895 135.096 52.5502 135.401 53.1435C135.706 53.7334 135.859 54.4228 135.859 55.2117C135.859 55.9939 135.706 56.6816 135.401 57.2749C135.096 57.8648 134.662 58.3255 134.099 58.657C133.539 58.9851 132.872 59.1492 132.1 59.1492ZM132.11 57.5085C132.461 57.5085 132.755 57.4091 132.99 57.2102C133.225 57.0081 133.403 56.733 133.522 56.3849C133.645 56.0369 133.706 55.6409 133.706 55.1967C133.706 54.7526 133.645 54.3565 133.522 54.0085C133.403 53.6605 133.225 53.3854 132.99 53.1832C132.755 52.9811 132.461 52.88 132.11 52.88C131.755 52.88 131.457 52.9811 131.215 53.1832C130.977 53.3854 130.796 53.6605 130.673 54.0085C130.554 54.3565 130.494 54.7526 130.494 55.1967C130.494 55.6409 130.554 56.0369 130.673 56.3849C130.796 56.733 130.977 57.0081 131.215 57.2102C131.457 57.4091 131.755 57.5085 132.11 57.5085Z" fill="black"/>
<path d="M137.236 61.8636V51.3636H139.324V52.6463H139.418C139.511 52.4408 139.645 52.232 139.821 52.0199C140 51.8045 140.232 51.6255 140.517 51.483C140.805 51.3371 141.163 51.2642 141.591 51.2642C142.148 51.2642 142.661 51.41 143.132 51.7017C143.603 51.9901 143.979 52.4259 144.261 53.0092C144.542 53.5893 144.683 54.3168 144.683 55.1918C144.683 56.0436 144.546 56.7628 144.271 57.3494C143.999 57.9328 143.628 58.3752 143.157 58.6769C142.69 58.9751 142.166 59.1243 141.586 59.1243C141.175 59.1243 140.825 59.0564 140.537 58.9205C140.252 58.7846 140.018 58.6139 139.836 58.4084C139.654 58.1996 139.514 57.9891 139.418 57.777H139.354V61.8636H137.236ZM139.309 55.1818C139.309 55.6359 139.372 56.032 139.498 56.37C139.624 56.7081 139.806 56.9716 140.045 57.1605C140.283 57.3461 140.573 57.4389 140.915 57.4389C141.26 57.4389 141.551 57.3445 141.79 57.1555C142.028 56.9633 142.209 56.6982 142.332 56.3601C142.458 56.0187 142.521 55.626 142.521 55.1818C142.521 54.741 142.459 54.3532 142.337 54.0185C142.214 53.6837 142.033 53.4219 141.795 53.233C141.556 53.044 141.263 52.9496 140.915 52.9496C140.57 52.9496 140.278 53.0407 140.04 53.223C139.804 53.4053 139.624 53.6638 139.498 53.9986C139.372 54.3333 139.309 54.7278 139.309 55.1818Z" fill="black"/>
<path d="M148.273 59.1442C147.786 59.1442 147.351 59.0597 146.97 58.8906C146.589 58.7183 146.287 58.4647 146.065 58.13C145.847 57.7919 145.737 57.371 145.737 56.8672C145.737 56.443 145.815 56.0867 145.971 55.7983C146.127 55.5099 146.339 55.2779 146.607 55.1023C146.876 54.9266 147.181 54.794 147.522 54.7046C147.867 54.6151 148.228 54.5521 148.606 54.5156C149.05 54.4692 149.408 54.4261 149.68 54.3864C149.951 54.3433 150.149 54.2803 150.271 54.1974C150.394 54.1146 150.455 53.992 150.455 53.8296V53.7997C150.455 53.4849 150.356 53.2412 150.157 53.0689C149.961 52.8965 149.683 52.8104 149.322 52.8104C148.941 52.8104 148.637 52.8949 148.412 53.0639C148.187 53.2296 148.037 53.4385 147.965 53.6903L146.006 53.5313C146.105 53.0672 146.301 52.6662 146.592 52.3281C146.884 51.9867 147.26 51.7249 147.721 51.5426C148.185 51.357 148.722 51.2642 149.332 51.2642C149.756 51.2642 150.162 51.3139 150.55 51.4134C150.941 51.5128 151.287 51.6669 151.589 51.8757C151.894 52.0845 152.134 52.353 152.31 52.6811C152.485 53.0059 152.573 53.3954 152.573 53.8494V59H150.565V57.9411H150.505C150.382 58.1797 150.218 58.3902 150.013 58.5724C149.807 58.7514 149.56 58.8923 149.272 58.995C148.984 59.0945 148.651 59.1442 148.273 59.1442ZM148.879 57.6825C149.191 57.6825 149.466 57.6212 149.705 57.4986C149.943 57.3726 150.13 57.2036 150.266 56.9915C150.402 56.7794 150.47 56.5391 150.47 56.2706V55.4602C150.404 55.5033 150.313 55.5431 150.197 55.5796C150.084 55.6127 149.956 55.6442 149.814 55.674C149.671 55.7005 149.529 55.7254 149.386 55.7486C149.244 55.7685 149.115 55.7867 148.999 55.8033C148.75 55.8397 148.533 55.8977 148.347 55.9773C148.162 56.0568 148.018 56.1645 147.915 56.3004C147.812 56.433 147.761 56.5987 147.761 56.7976C147.761 57.0859 147.865 57.3064 148.074 57.4588C148.286 57.608 148.554 57.6825 148.879 57.6825Z" fill="black"/>
<path d="M157.382 52V50.9261C157.382 50.6212 157.442 50.3097 157.561 49.9915C157.68 49.6733 157.838 49.3733 158.033 49.0916C158.229 48.8099 158.441 48.5746 158.67 48.3857L159.604 48.9375C159.419 49.2292 159.266 49.5341 159.147 49.8523C159.031 50.1705 158.973 50.5251 158.973 50.9162V52H157.382ZM159.893 52V50.9261C159.893 50.6212 159.952 50.3097 160.072 49.9915C160.191 49.6733 160.348 49.3733 160.544 49.0916C160.739 48.8099 160.952 48.5746 161.18 48.3857L162.115 48.9375C161.929 49.2292 161.777 49.5341 161.658 49.8523C161.542 50.1705 161.484 50.5251 161.484 50.9162V52H159.893Z" fill="black"/>
<path d="M163.804 59H161.497L165.012 48.8182H167.786L171.296 59H168.989L166.439 51.1449H166.359L163.804 59ZM163.66 54.9979H169.109V56.6783H163.66V54.9979Z" fill="black"/>
<path d="M174.94 59.1243C174.36 59.1243 173.835 58.9751 173.364 58.6769C172.897 58.3752 172.526 57.9328 172.251 57.3494C171.979 56.7628 171.843 56.0436 171.843 55.1918C171.843 54.3168 171.984 53.5893 172.266 53.0092C172.547 52.4259 172.922 51.9901 173.389 51.7017C173.86 51.41 174.375 51.2642 174.935 51.2642C175.363 51.2642 175.719 51.3371 176.004 51.483C176.293 51.6255 176.525 51.8045 176.7 52.0199C176.879 52.232 177.015 52.4408 177.108 52.6463H177.173V48.8182H179.286V59H177.197V57.777H177.108C177.009 57.9891 176.868 58.1996 176.685 58.4084C176.506 58.6139 176.273 58.7846 175.984 58.9205C175.699 59.0564 175.351 59.1243 174.94 59.1243ZM175.612 57.4389C175.953 57.4389 176.241 57.3461 176.477 57.1605C176.715 56.9716 176.898 56.7081 177.023 56.37C177.153 56.032 177.217 55.6359 177.217 55.1818C177.217 54.7278 177.154 54.3333 177.028 53.9986C176.902 53.6638 176.72 53.4053 176.482 53.223C176.243 53.0407 175.953 52.9496 175.612 52.9496C175.264 52.9496 174.97 53.044 174.732 53.233C174.493 53.4219 174.312 53.6837 174.19 54.0185C174.067 54.3532 174.006 54.741 174.006 55.1818C174.006 55.626 174.067 56.0187 174.19 56.3601C174.316 56.6982 174.496 56.9633 174.732 57.1555C174.97 57.3445 175.264 57.4389 175.612 57.4389Z" fill="black"/>
<path d="M181.027 59V51.3636H183.145V59H181.027ZM182.091 50.3793C181.776 50.3793 181.506 50.2749 181.28 50.0661C181.058 49.8539 180.947 49.6004 180.947 49.3054C180.947 49.0137 181.058 48.7635 181.28 48.5547C181.506 48.3426 181.776 48.2365 182.091 48.2365C182.406 48.2365 182.674 48.3426 182.896 48.5547C183.122 48.7635 183.234 49.0137 183.234 49.3054C183.234 49.6004 183.122 49.8539 182.896 50.0661C182.674 50.2749 182.406 50.3793 182.091 50.3793Z" fill="black"/>
<path d="M186.959 48.8182V59H184.841V48.8182H186.959Z" fill="black"/>
<path d="M188.586 59V57.7223L193.667 50.593H188.576V48.8182H196.372V50.0959L191.286 57.2251H196.382V59H188.586Z" fill="black"/>
<path d="M200.171 59.1442C199.684 59.1442 199.25 59.0597 198.869 58.8906C198.487 58.7183 198.186 58.4647 197.964 58.13C197.745 57.7919 197.636 57.371 197.636 56.8672C197.636 56.443 197.714 56.0867 197.869 55.7983C198.025 55.5099 198.237 55.2779 198.506 55.1023C198.774 54.9266 199.079 54.794 199.42 54.7046C199.765 54.6151 200.126 54.5521 200.504 54.5156C200.948 54.4692 201.306 54.4261 201.578 54.3864C201.85 54.3433 202.047 54.2803 202.17 54.1974C202.292 54.1146 202.354 53.992 202.354 53.8296V53.7997C202.354 53.4849 202.254 53.2412 202.055 53.0689C201.86 52.8965 201.581 52.8104 201.22 52.8104C200.839 52.8104 200.536 52.8949 200.31 53.0639C200.085 53.2296 199.936 53.4385 199.863 53.6903L197.904 53.5313C198.004 53.0672 198.199 52.6662 198.491 52.3281C198.782 51.9867 199.159 51.7249 199.619 51.5426C200.083 51.357 200.62 51.2642 201.23 51.2642C201.654 51.2642 202.06 51.3139 202.448 51.4134C202.839 51.5128 203.186 51.6669 203.487 51.8757C203.792 52.0845 204.032 52.353 204.208 52.6811C204.384 53.0059 204.472 53.3954 204.472 53.8494V59H202.463V57.9411H202.403C202.281 58.1797 202.117 58.3902 201.911 58.5724C201.706 58.7514 201.459 58.8923 201.17 58.995C200.882 59.0945 200.549 59.1442 200.171 59.1442ZM200.778 57.6825C201.089 57.6825 201.364 57.6212 201.603 57.4986C201.842 57.3726 202.029 57.2036 202.165 56.9915C202.301 56.7794 202.369 56.5391 202.369 56.2706V55.4602C202.302 55.5033 202.211 55.5431 202.095 55.5796C201.983 55.6127 201.855 55.6442 201.712 55.674C201.57 55.7005 201.427 55.7254 201.285 55.7486C201.142 55.7685 201.013 55.7867 200.897 55.8033C200.648 55.8397 200.431 55.8977 200.246 55.9773C200.06 56.0568 199.916 56.1645 199.813 56.3004C199.711 56.433 199.659 56.5987 199.659 56.7976C199.659 57.0859 199.764 57.3064 199.972 57.4588C200.184 57.608 200.453 57.6825 200.778 57.6825Z" fill="black"/>
<path d="M206.115 59V51.3636H208.133V52.7109H208.223C208.382 52.2635 208.647 51.9105 209.018 51.652C209.389 51.3935 209.833 51.2642 210.351 51.2642C210.874 51.2642 211.32 51.3951 211.688 51.657C212.056 51.9155 212.301 52.2668 212.424 52.7109H212.503C212.659 52.2734 212.941 51.9238 213.348 51.6619C213.759 51.3968 214.245 51.2642 214.805 51.2642C215.518 51.2642 216.096 51.4912 216.54 51.9453C216.988 52.3961 217.211 53.0358 217.211 53.8644V59H215.098V54.282C215.098 53.8577 214.986 53.5395 214.76 53.3274C214.535 53.1153 214.253 53.0092 213.915 53.0092C213.531 53.0092 213.231 53.1319 213.015 53.3771C212.8 53.6191 212.692 53.9389 212.692 54.3367V59H210.639V54.2372C210.639 53.8627 210.531 53.5644 210.316 53.3423C210.104 53.1203 209.824 53.0092 209.476 53.0092C209.24 53.0092 209.028 53.0689 208.839 53.1882C208.654 53.3042 208.506 53.4683 208.397 53.6804C208.287 53.8892 208.233 54.1345 208.233 54.4162V59H206.115Z" fill="black"/>
<path d="M221.062 59.1442C220.575 59.1442 220.14 59.0597 219.759 58.8906C219.378 58.7183 219.076 58.4647 218.854 58.13C218.636 57.7919 218.526 57.371 218.526 56.8672C218.526 56.443 218.604 56.0867 218.76 55.7983C218.916 55.5099 219.128 55.2779 219.396 55.1023C219.665 54.9266 219.97 54.794 220.311 54.7046C220.656 54.6151 221.017 54.5521 221.395 54.5156C221.839 54.4692 222.197 54.4261 222.469 54.3864C222.741 54.3433 222.938 54.2803 223.06 54.1974C223.183 54.1146 223.244 53.992 223.244 53.8296V53.7997C223.244 53.4849 223.145 53.2412 222.946 53.0689C222.751 52.8965 222.472 52.8104 222.111 52.8104C221.73 52.8104 221.426 52.8949 221.201 53.0639C220.976 53.2296 220.827 53.4385 220.754 53.6903L218.795 53.5313C218.894 53.0672 219.09 52.6662 219.381 52.3281C219.673 51.9867 220.049 51.7249 220.51 51.5426C220.974 51.357 221.511 51.2642 222.121 51.2642C222.545 51.2642 222.951 51.3139 223.339 51.4134C223.73 51.5128 224.076 51.6669 224.378 51.8757C224.683 52.0845 224.923 52.353 225.099 52.6811C225.274 53.0059 225.362 53.3954 225.362 53.8494V59H223.354V57.9411H223.294C223.171 58.1797 223.007 58.3902 222.802 58.5724C222.596 58.7514 222.349 58.8923 222.061 58.995C221.773 59.0945 221.44 59.1442 221.062 59.1442ZM221.668 57.6825C221.98 57.6825 222.255 57.6212 222.494 57.4986C222.732 57.3726 222.92 57.2036 223.055 56.9915C223.191 56.7794 223.259 56.5391 223.259 56.2706V55.4602C223.193 55.5033 223.102 55.5431 222.986 55.5796C222.873 55.6127 222.746 55.6442 222.603 55.674C222.46 55.7005 222.318 55.7254 222.175 55.7486C222.033 55.7685 221.904 55.7867 221.788 55.8033C221.539 55.8397 221.322 55.8977 221.136 55.9773C220.951 56.0568 220.807 56.1645 220.704 56.3004C220.601 56.433 220.55 56.5987 220.55 56.7976C220.55 57.0859 220.654 57.3064 220.863 57.4588C221.075 57.608 221.344 57.6825 221.668 57.6825Z" fill="black"/>
<path d="M229.123 54.5852V59H227.005V51.3636H229.024V52.7109H229.113C229.282 52.2668 229.566 51.9155 229.963 51.657C230.361 51.3951 230.843 51.2642 231.41 51.2642C231.94 51.2642 232.403 51.3802 232.797 51.6122C233.192 51.8442 233.498 52.1757 233.717 52.6065C233.936 53.0341 234.045 53.5445 234.045 54.1378V59H231.927V54.5156C231.931 54.0483 231.811 53.6837 231.569 53.4219C231.327 53.1567 230.994 53.0242 230.57 53.0242C230.285 53.0242 230.033 53.0855 229.814 53.2081C229.599 53.3307 229.43 53.5097 229.307 53.745C229.188 53.977 229.127 54.2571 229.123 54.5852Z" fill="black"/>
<path d="M237.489 48.8182V49.8921C237.489 50.197 237.43 50.5085 237.31 50.8267C237.194 51.1416 237.038 51.4399 236.843 51.7216C236.647 52 236.434 52.237 236.202 52.4325L235.267 51.8807C235.433 51.6189 235.578 51.3288 235.704 51.0107C235.834 50.6925 235.898 50.3229 235.898 49.902V48.8182H237.489ZM239.99 48.8182V49.8921C239.99 50.197 239.93 50.5085 239.811 50.8267C239.695 51.1416 239.539 51.4399 239.344 51.7216C239.148 52 238.933 52.237 238.697 52.4325L237.763 51.8807C237.932 51.6189 238.079 51.3288 238.205 51.0107C238.334 50.6925 238.399 50.3229 238.399 49.902V48.8182H239.99Z" fill="black"/>
</svg>
